<svg width="640" height="480" xmlns="http://www.w3.org/2000/svg">
 <!-- Created with SVG-edit - http://svg-edit.googlecode.com/ -->
 <g>
  <title>Layer 1</title>
  <rect id="svg_3" height="85" width="95" y="57" x="64" stroke-width="5" stroke="#000000" fill="none"/>
  <rect id="svg_4" height="148" width="198" y="81" x="225" stroke-width="5" stroke="#000000" fill="none"/>
  <rect id="svg_5" height="97" width="115" y="222" x="84" stroke-width="5" stroke="#000000" fill="none"/>
  <rect id="svg_6" height="124" width="208" y="246" x="220" stroke-width="5" stroke="#000000" fill="none"/>
  <rect id="svg_7" height="385" width="183" y="41" x="441" stroke-width="5" stroke="#000000" fill="none"/>
  <rect id="svg_8" height="53" width="265" y="18" x="161" stroke-width="5" stroke="#000000" fill="none"/>
  <rect id="svg_9" height="5" width="20" y="14" x="199" stroke-width="5" stroke="#000000" fill="none"/>
  <rect id="svg_10" height="78" width="102" y="51" x="194" stroke-width="5" stroke="#000000" fill="none"/>
  <rect id="svg_11" height="166" width="211" y="130" x="220" stroke-width="5" stroke="#000000" fill="none"/>
  <rect id="svg_12" height="84" width="179" y="253" x="258" stroke-width="5" stroke="#000000" fill="none"/>
  <rect id="svg_13" height="88" width="143" y="167" x="130" stroke-width="5" stroke="#000000" fill="none"/>
  <rect id="svg_14" height="111" width="232" y="44" x="87" stroke-width="5" stroke="#000000" fill="none"/>
  <rect id="svg_15" height="121" width="191" y="18" x="22" stroke-width="5" stroke="#000000" fill="none"/>
  <rect id="svg_16" height="148" width="109" y="154" x="107" stroke-width="5" stroke="#000000" fill="none"/>
  <rect id="svg_17" height="147" width="211" y="274" x="62" stroke-width="5" stroke="#000000" fill="none"/>
  <rect id="svg_18" height="140" width="148" y="187" x="53" stroke-width="5" stroke="#000000" fill="none"/>
  <rect id="svg_19" height="64" width="82" y="366" x="94" stroke-width="5" stroke="#000000" fill="none"/>
  <rect id="svg_20" height="75" width="298" y="369" x="29" stroke-width="5" stroke="#000000" fill="none"/>
  <rect id="svg_21" height="71" width="185" y="358" x="313" stroke-width="5" stroke="#000000" fill="none"/>
  <rect id="svg_22" height="92" width="146" y="162" x="456" stroke-width="5" stroke="#000000" fill="none"/>
  <rect id="svg_23" height="51" width="141" y="50" x="479" stroke-width="5" stroke="#000000" fill="none"/>
  <rect id="svg_24" height="53" width="151" y="23" x="554" stroke-width="5" stroke="#000000" fill="none"/>
  <rect id="svg_26" height="143" width="199" y="96" x="108" stroke-width="5" stroke="#00bf00" fill="#ff0000"/>
  <rect id="svg_27" height="62" width="123" y="333" x="117" stroke-width="5" stroke="#00bf00" fill="#ff0000"/>
  <rect id="svg_28" height="38" width="128" y="244" x="380" stroke-width="5" stroke="#00bf00" fill="#ff0000"/>
  <rect id="svg_29" height="28" width="94" y="139" x="443" stroke-width="5" stroke="#00bf00" fill="#ff0000"/>
  <rect id="svg_30" height="55" width="48" y="66" x="462" stroke-width="5" stroke="#00bf00" fill="#ff0000"/>
  <rect id="svg_31" height="71" width="89" y="46" x="351" stroke-width="5" stroke="#00bf00" fill="#ff0000"/>
  <rect id="svg_32" height="105" width="38" y="88" x="229" stroke-width="5" stroke="#00bf00" fill="#ff0000"/>
  <rect id="svg_33" height="20" width="20" y="297" x="264" stroke-width="5" stroke="#00bf00" fill="#ff0000"/>
  <rect id="svg_34" height="14" width="81" y="416" x="364" stroke-width="5" stroke="#00bf00" fill="#ff0000"/>
  <rect id="svg_35" height="44" width="95" y="342" x="464" stroke-width="5" stroke="#00bf00" fill="#007fff"/>
  <rect id="svg_36" height="55" width="72" y="181" x="581" stroke-width="5" stroke="#00bf00" fill="#007fff"/>
  <rect id="svg_37" height="1" width="2" y="218" x="501" stroke-width="5" stroke="#00bf00" fill="#007fff"/>
  <rect id="svg_38" height="62" width="100" y="146" x="287" stroke-width="5" stroke="#00bf00" fill="#007fff"/>
  <rect id="svg_39" height="77" width="15" y="225" x="335" stroke-width="5" stroke="#00bf00" fill="#007fff"/>
  <rect id="svg_40" height="34" width="27" y="331" x="262" stroke-width="5" stroke="#00bf00" fill="#007fff"/>
  <rect id="svg_41" height="47" width="70" y="381" x="177" stroke-width="5" stroke="#00bf00" fill="#007fff"/>
  <rect id="svg_42" height="30" width="55" y="230" x="91" stroke-width="5" stroke="#00bf00" fill="#007fff"/>
  <rect id="svg_43" height="26" width="83" y="106" x="47" stroke-width="5" stroke="#00bf00" fill="#007fff"/>
  <rect id="svg_44" height="46" width="128" y="23" x="51" stroke-width="5" stroke="#00bf00" fill="#007fff"/>
  <rect id="svg_45" height="70" width="162" y="6" x="195" stroke-width="5" stroke="#00bf00" fill="#007fff"/>
  <rect id="svg_46" height="46" width="133" y="22" x="383" stroke-width="5" stroke="#00bf00" fill="#7f0000"/>
  <rect id="svg_47" height="23" width="86" y="337" x="507" stroke-width="5" stroke="#00bf00" fill="#7f0000"/>
  <rect id="svg_48" height="24" width="48" y="237" x="530" stroke-width="5" stroke="#00bf00" fill="#7f0000"/>
  <rect id="svg_49" height="28" width="116" y="136" x="491" stroke-width="5" stroke="#00bf00" fill="#7f0000"/>
  <rect id="svg_50" height="21" width="45" y="65" x="581" stroke-width="5" stroke="#00bf00" fill="#7f0000"/>
  <rect id="svg_51" height="50" width="58" y="189" x="443" stroke-width="5" stroke="#00bf00" fill="#7f0000"/>
  <rect id="svg_52" height="26" width="22" y="347" x="411" stroke-width="5" stroke="#00bf00" fill="#7f0000"/>
  <rect id="svg_53" height="76" width="107" y="350" x="352" stroke-width="5" stroke="#00bf00" fill="#7f0000"/>
  <rect id="svg_54" height="32" width="24" y="414" x="395" stroke-width="5" stroke="#00bf00" fill="#7f0000"/>
  <rect id="svg_55" height="34" width="88" y="275" x="371" stroke-width="5" stroke="#00bf00" fill="#7f0000"/>
  <rect id="svg_56" height="64" width="76" y="293" x="542" stroke-width="5" stroke="#00bf00" fill="#7f0000"/>
  <rect id="svg_57" height="62" width="99" y="150" x="429" stroke-width="5" stroke="#00bf00" fill="#7f0000"/>
  <rect id="svg_58" height="41" width="32" y="109" x="429" stroke-width="5" stroke="#aaaaff" fill="#7f0000"/>
  <rect id="svg_59" height="107" width="118" y="149" x="96" stroke-width="5" stroke="#aaaaff" fill="#7f0000"/>
  <rect id="svg_60" height="84" width="52" y="294" x="72" stroke-width="5" stroke="#aaaaff" fill="#7f0000"/>
  <rect id="svg_61" height="29" width="91" y="442" x="118" stroke-width="5" stroke="#aaaaff" fill="#7f0000"/>
  <rect id="svg_62" height="93" width="135" y="325" x="259" stroke-width="5" stroke="#aaaaff" fill="#7f0000"/>
  <rect id="svg_63" height="29" width="54" y="254" x="261" stroke-width="5" stroke="#aaaaff" fill="#7f0000"/>
  <rect id="svg_64" height="72" width="49" y="103" x="22" stroke-width="5" stroke="#aaaaff" fill="#7f0000"/>
  <rect id="svg_65" height="115" width="74" y="211" x="15" stroke-width="5" stroke="#aaaaff" fill="#7f0000"/>
  <rect id="svg_66" height="48" width="44" y="378" x="-5" stroke-width="5" stroke="#aaaaff" fill="#7f0000"/>
 </g>
</svg>